<?xml version="1.0" standalone="no"?>
<!DOCTYPE svg PUBLIC "-//W3C//DTD SVG 20010904//EN"
 "http://www.w3.org/TR/2001/REC-SVG-20010904/DTD/svg10.dtd">
<svg version="1.0" xmlns="http://www.w3.org/2000/svg"
 width="337.000000pt" height="221.000000pt" viewBox="0 0 337.000000 221.000000"
 preserveAspectRatio="xMidYMid meet">

<g transform="translate(0.000000,221.000000) scale(0.100000,-0.100000)"
fill="#000000" stroke="none">
<path d="M1015 2199 c-495 -51 -849 -349 -970 -813 -110 -424 4 -929 298
-1319 28 -37 57 -67 64 -67 18 0 16 10 -8 45 -73 108 -147 300 -176 459 -23
124 -22 370 1 491 147 774 792 1186 1609 1030 456 -87 874 -282 1411 -658 108
-75 126 -85 126 -69 0 13 -197 149 -360 249 -260 160 -659 364 -895 456 -411
162 -786 229 -1100 196z"/>
</g>
</svg>
